<svg width="1920" height="1080" viewBox="0 0 1920 1080" xmlns="http://www.w3.org/2000/svg" font-family="Helvetica, Arial, sans-serif">
  <defs>
    <radialGradient id="topGlow" cx="0.5" cy="0" r="0.9">
      <stop offset="0" stop-color="#2563EB" stop-opacity="0.22"/>
      <stop offset="0.5" stop-color="#2563EB" stop-opacity="0.07"/>
      <stop offset="1" stop-color="#2563EB" stop-opacity="0"/>
    </radialGradient>
    <radialGradient id="botGlow" cx="0.85" cy="1" r="0.8">
      <stop offset="0" stop-color="#06B6D4" stop-opacity="0.10"/>
      <stop offset="1" stop-color="#06B6D4" stop-opacity="0"/>
    </radialGradient>
    <linearGradient id="flow" x1="0" y1="0" x2="0" y2="1">
      <stop offset="0" stop-color="#22D3EE"/>
      <stop offset="1" stop-color="#3B82F6"/>
    </linearGradient>
    <linearGradient id="titleGrad" x1="0" y1="0" x2="1" y2="0">
      <stop offset="0" stop-color="#F8FAFC"/>
      <stop offset="1" stop-color="#93C5FD"/>
    </linearGradient>
  </defs>

  <rect width="1920" height="1080" fill="#0B0B0B"/>
  <rect width="1920" height="700" fill="url(#topGlow)"/>
  <rect y="480" width="1920" height="600" fill="url(#botGlow)"/>

  <text x="960" y="100" text-anchor="middle" font-size="58" font-weight="700" fill="url(#titleGrad)" letter-spacing="0.5">Technology Stack</text>
  <text x="960" y="148" text-anchor="middle" font-size="25" fill="#8FA3BF">Powering WaveX — AI Decision Intelligence Platform</text>

  <!-- card 1 · frontend -->
  <rect x="460" y="200" width="1000" height="120" rx="20" fill="none" stroke="#38BDF8" stroke-opacity="0.10" stroke-width="9"/>
  <rect x="460" y="200" width="1000" height="120" rx="20" fill="#FFFFFF" fill-opacity="0.045" stroke="#38BDF8" stroke-opacity="0.35" stroke-width="1.2"/>
  <line x1="484" y1="201.5" x2="1436" y2="201.5" stroke="#FFFFFF" stroke-opacity="0.15" stroke-width="1"/>
  <text x="500" y="232" font-size="14" fill="#22D3EE" letter-spacing="3">01</text>
  <text x="500" y="266" font-size="28" font-weight="600" fill="#F1F5F9">Frontend</text>
  <text x="500" y="294" font-size="17" fill="#7C8BA1">founder interface</text>

  <rect x="760" y="232" width="135" height="56" rx="14" fill="#FFFFFF" fill-opacity="0.05" stroke="#94A3B8" stroke-opacity="0.25"/>
  <g stroke="#61DAFB" stroke-width="1.6" fill="none">
    <ellipse cx="787" cy="260" rx="14" ry="5.5"/>
    <ellipse cx="787" cy="260" rx="14" ry="5.5" transform="rotate(60 787 260)"/>
    <ellipse cx="787" cy="260" rx="14" ry="5.5" transform="rotate(120 787 260)"/>
  </g>
  <circle cx="787" cy="260" r="3" fill="#61DAFB"/>
  <text x="810" y="267" font-size="19" fill="#E2E8F0">React</text>

  <rect x="911" y="232" width="115" height="56" rx="14" fill="#FFFFFF" fill-opacity="0.05" stroke="#94A3B8" stroke-opacity="0.25"/>
  <rect x="925" y="245" width="30" height="30" rx="8" fill="#646CFF"/>
  <text x="940" y="266" text-anchor="middle" font-size="15" font-weight="700" fill="#FFFFFF">V</text>
  <text x="963" y="267" font-size="19" fill="#E2E8F0">Vite</text>

  <rect x="1042" y="232" width="175" height="56" rx="14" fill="#FFFFFF" fill-opacity="0.05" stroke="#94A3B8" stroke-opacity="0.25"/>
  <rect x="1056" y="245" width="30" height="30" rx="8" fill="#3178C6"/>
  <text x="1071" y="265" text-anchor="middle" font-size="13" font-weight="700" fill="#FFFFFF">TS</text>
  <text x="1094" y="267" font-size="19" fill="#E2E8F0">TypeScript</text>

  <rect x="1233" y="232" width="195" height="56" rx="14" fill="#FFFFFF" fill-opacity="0.05" stroke="#94A3B8" stroke-opacity="0.25"/>
  <rect x="1247" y="245" width="30" height="30" rx="8" fill="#0EA5E9"/>
  <text x="1262" y="267" text-anchor="middle" font-size="16" font-weight="700" fill="#FFFFFF">~</text>
  <text x="1285" y="267" font-size="19" fill="#E2E8F0">Tailwind CSS</text>

  <line x1="960" y1="324" x2="960" y2="352" stroke="#22D3EE" stroke-opacity="0.12" stroke-width="8"/>
  <line x1="960" y1="324" x2="960" y2="352" stroke="url(#flow)" stroke-width="2.5"/>
  <path d="M953 351 L960 359 L967 351" fill="none" stroke="#3B82F6" stroke-width="2.5"/>

  <!-- card 2 · backend -->
  <rect x="460" y="364" width="1000" height="104" rx="20" fill="none" stroke="#38BDF8" stroke-opacity="0.10" stroke-width="9"/>
  <rect x="460" y="364" width="1000" height="104" rx="20" fill="#FFFFFF" fill-opacity="0.045" stroke="#38BDF8" stroke-opacity="0.35" stroke-width="1.2"/>
  <line x1="484" y1="365.5" x2="1436" y2="365.5" stroke="#FFFFFF" stroke-opacity="0.15" stroke-width="1"/>
  <text x="500" y="402" font-size="14" fill="#22D3EE" letter-spacing="3">02</text>
  <text x="500" y="434" font-size="28" font-weight="600" fill="#F1F5F9">Backend</text>
  <text x="500" y="458" font-size="17" fill="#7C8BA1">API + orchestration</text>

  <rect x="760" y="388" width="150" height="56" rx="14" fill="#FFFFFF" fill-opacity="0.05" stroke="#94A3B8" stroke-opacity="0.25"/>
  <rect x="774" y="401" width="30" height="30" rx="8" fill="#009688"/>
  <text x="789" y="422" text-anchor="middle" font-size="15" font-weight="700" fill="#FFFFFF">F</text>
  <text x="812" y="423" font-size="19" fill="#E2E8F0">FastAPI</text>

  <line x1="960" y1="472" x2="960" y2="500" stroke="#22D3EE" stroke-opacity="0.12" stroke-width="8"/>
  <line x1="960" y1="472" x2="960" y2="500" stroke="url(#flow)" stroke-width="2.5"/>
  <path d="M953 499 L960 507 L967 499" fill="none" stroke="#3B82F6" stroke-width="2.5"/>

  <!-- card 3 · database -->
  <rect x="460" y="512" width="1000" height="104" rx="20" fill="none" stroke="#38BDF8" stroke-opacity="0.10" stroke-width="9"/>
  <rect x="460" y="512" width="1000" height="104" rx="20" fill="#FFFFFF" fill-opacity="0.045" stroke="#38BDF8" stroke-opacity="0.35" stroke-width="1.2"/>
  <line x1="484" y1="513.5" x2="1436" y2="513.5" stroke="#FFFFFF" stroke-opacity="0.15" stroke-width="1"/>
  <text x="500" y="550" font-size="14" fill="#22D3EE" letter-spacing="3">03</text>
  <text x="500" y="582" font-size="28" font-weight="600" fill="#F1F5F9">Database layer</text>
  <text x="500" y="606" font-size="17" fill="#7C8BA1">persistent memory</text>

  <rect x="760" y="536" width="185" height="56" rx="14" fill="#FFFFFF" fill-opacity="0.05" stroke="#94A3B8" stroke-opacity="0.25"/>
  <rect x="774" y="549" width="30" height="30" rx="8" fill="#336791"/>
  <text x="789" y="569" text-anchor="middle" font-size="13" font-weight="700" fill="#FFFFFF">PG</text>
  <text x="812" y="571" font-size="19" fill="#E2E8F0">PostgreSQL</text>

  <rect x="961" y="536" width="240" height="56" rx="14" fill="#FFFFFF" fill-opacity="0.05" stroke="#94A3B8" stroke-opacity="0.25"/>
  <rect x="975" y="549" width="30" height="30" rx="8" fill="#B3282D"/>
  <text x="990" y="569" text-anchor="middle" font-size="13" font-weight="700" fill="#FFFFFF">SA</text>
  <text x="1013" y="571" font-size="19" fill="#E2E8F0">SQLAlchemy · ORM</text>

  <line x1="960" y1="620" x2="960" y2="648" stroke="#22D3EE" stroke-opacity="0.12" stroke-width="8"/>
  <line x1="960" y1="620" x2="960" y2="648" stroke="url(#flow)" stroke-width="2.5"/>
  <path d="M953 647 L960 655 L967 647" fill="none" stroke="#3B82F6" stroke-width="2.5"/>

  <!-- card 4 · ai & knowledge -->
  <rect x="460" y="660" width="1000" height="196" rx="20" fill="none" stroke="#38BDF8" stroke-opacity="0.10" stroke-width="9"/>
  <rect x="460" y="660" width="1000" height="196" rx="20" fill="#FFFFFF" fill-opacity="0.045" stroke="#38BDF8" stroke-opacity="0.35" stroke-width="1.2"/>
  <line x1="484" y1="661.5" x2="1436" y2="661.5" stroke="#FFFFFF" stroke-opacity="0.15" stroke-width="1"/>
  <text x="500" y="700" font-size="14" fill="#22D3EE" letter-spacing="3">04</text>
  <text x="500" y="732" font-size="28" font-weight="600" fill="#F1F5F9">AI &amp; knowledge</text>
  <text x="500" y="756" font-size="17" fill="#7C8BA1">LLMs + vector search</text>

  <rect x="760" y="684" width="340" height="56" rx="14" fill="#FFFFFF" fill-opacity="0.05" stroke="#94A3B8" stroke-opacity="0.25"/>
  <rect x="774" y="697" width="30" height="30" rx="8" fill="#F59E0B"/>
  <text x="789" y="717" text-anchor="middle" font-size="13" font-weight="700" fill="#1F2937">Ch</text>
  <text x="812" y="719" font-size="19" fill="#E2E8F0">ChromaDB · vector database</text>

  <text x="760" y="780" font-size="15" fill="#7C8BA1" letter-spacing="1">LARGE LANGUAGE MODELS</text>

  <rect x="760" y="792" width="130" height="50" rx="13" fill="#FFFFFF" fill-opacity="0.05" stroke="#94A3B8" stroke-opacity="0.25"/>
  <rect x="772" y="803" width="28" height="28" rx="8" fill="#4E8FF7"/>
  <text x="786" y="822" text-anchor="middle" font-size="14" font-weight="700" fill="#FFFFFF">G</text>
  <text x="808" y="823" font-size="18" fill="#E2E8F0">Gemini</text>

  <rect x="906" y="792" width="128" height="50" rx="13" fill="#FFFFFF" fill-opacity="0.05" stroke="#94A3B8" stroke-opacity="0.25"/>
  <rect x="918" y="803" width="28" height="28" rx="8" fill="#D97757"/>
  <text x="932" y="822" text-anchor="middle" font-size="14" font-weight="700" fill="#FFFFFF">C</text>
  <text x="954" y="823" font-size="18" fill="#E2E8F0">Claude</text>

  <rect x="1050" y="792" width="130" height="50" rx="13" fill="#FFFFFF" fill-opacity="0.05" stroke="#94A3B8" stroke-opacity="0.25"/>
  <rect x="1062" y="803" width="28" height="28" rx="8" fill="#ECEFF4"/>
  <text x="1076" y="822" text-anchor="middle" font-size="14" font-weight="700" fill="#0B0B0B">O</text>
  <text x="1098" y="823" font-size="18" fill="#E2E8F0">OpenAI</text>

  <rect x="1196" y="792" width="230" height="50" rx="13" fill="#FFFFFF" fill-opacity="0.05" stroke="#94A3B8" stroke-opacity="0.25"/>
  <rect x="1208" y="803" width="28" height="28" rx="8" fill="#64748B"/>
  <text x="1222" y="822" text-anchor="middle" font-size="12" font-weight="700" fill="#FFFFFF">OW</text>
  <text x="1244" y="822" font-size="17" fill="#E2E8F0">Open-weight · future</text>

  <line x1="960" y1="860" x2="960" y2="888" stroke="#22D3EE" stroke-opacity="0.12" stroke-width="8"/>
  <line x1="960" y1="860" x2="960" y2="888" stroke="url(#flow)" stroke-width="2.5"/>
  <path d="M953 887 L960 895 L967 887" fill="none" stroke="#3B82F6" stroke-width="2.5"/>

  <!-- card 5 · deployment -->
  <rect x="460" y="900" width="1000" height="104" rx="20" fill="none" stroke="#38BDF8" stroke-opacity="0.10" stroke-width="9"/>
  <rect x="460" y="900" width="1000" height="104" rx="20" fill="#FFFFFF" fill-opacity="0.045" stroke="#38BDF8" stroke-opacity="0.35" stroke-width="1.2"/>
  <line x1="484" y1="901.5" x2="1436" y2="901.5" stroke="#FFFFFF" stroke-opacity="0.15" stroke-width="1"/>
  <text x="500" y="938" font-size="14" fill="#22D3EE" letter-spacing="3">05</text>
  <text x="500" y="970" font-size="28" font-weight="600" fill="#F1F5F9">Deployment</text>
  <text x="500" y="994" font-size="17" fill="#7C8BA1">containerized shipping</text>

  <rect x="760" y="924" width="245" height="56" rx="14" fill="#FFFFFF" fill-opacity="0.05" stroke="#94A3B8" stroke-opacity="0.25"/>
  <rect x="774" y="937" width="30" height="30" rx="8" fill="#2496ED"/>
  <text x="789" y="958" text-anchor="middle" font-size="15" font-weight="700" fill="#FFFFFF">D</text>
  <text x="812" y="959" font-size="19" fill="#E2E8F0">Docker · optional</text>

  <text x="960" y="1048" text-anchor="middle" font-size="16" fill="#475569">WaveX · system architecture</text>
</svg>
